<?xml version="1.0" encoding="UTF-8"?>
<svg xmlns="http://www.w3.org/2000/svg" viewBox="-40 0 340 420" width="2000" height="2470">
  <defs>
    <linearGradient id="cloudMain" x1="50%" y1="0%" x2="50%" y2="100%">
      <stop offset="0%" stop-color="#B8E0F5"/>
      <stop offset="55%" stop-color="#7DB9DC"/>
      <stop offset="100%" stop-color="#4A9FD4"/>
    </linearGradient>
    <radialGradient id="cloudInner" cx="50%" cy="45%" r="55%">
      <stop offset="0%" stop-color="rgba(255,255,255,0.4)"/>
      <stop offset="100%" stop-color="rgba(255,255,255,0)"/>
    </radialGradient>
  </defs>
  <path d="M 100 52 Q 80 70 100 88" stroke="#4A9FD4" stroke-width="4" fill="none" stroke-linecap="round" opacity="0.35"/>
  <path d="M 110 60 Q 96 70 110 80" stroke="#4A9FD4" stroke-width="4" fill="none" stroke-linecap="round" opacity="0.6"/>
  <path d="M 160 52 Q 180 70 160 88" stroke="#4A9FD4" stroke-width="4" fill="none" stroke-linecap="round" opacity="0.35"/>
  <path d="M 150 60 Q 164 70 150 80" stroke="#4A9FD4" stroke-width="4" fill="none" stroke-linecap="round" opacity="0.6"/>
  <path d="M 130 62 C 124 53, 112 56, 115 68 C 118 79, 130 88, 130 88 C 130 88, 142 79, 145 68 C 148 56, 136 53, 130 62 Z" fill="#4A9FD4"/>
  <line x1="130" y1="88" x2="130" y2="102" stroke="#4A9FD4" stroke-width="3.5" stroke-linecap="round"/>
  <path d="M 45 240 C 10 240, 5 198, 42 183 C 20 148, 55 120, 92 138 C 92 92, 160 92, 168 135 C 205 115, 245 145, 222 182 C 255 200, 248 240, 210 240 Z" fill="url(#cloudMain)"/>
  <path d="M 45 240 C 10 240, 5 198, 42 183 C 20 148, 55 120, 92 138 C 92 92, 160 92, 168 135 C 205 115, 245 145, 222 182 C 255 200, 248 240, 210 240 Z" fill="url(#cloudInner)"/>
  <g fill="white">
    <g transform="translate(60 220) rotate(28) scale(0.65)">
      <ellipse cx="-13" cy="-7" rx="5.5" ry="7" transform="rotate(-24 -13 -7)"/>
      <ellipse cx="-5" cy="-16" rx="5.5" ry="7.5" transform="rotate(-6 -5 -16)"/>
      <ellipse cx="5" cy="-16" rx="5.5" ry="7.5" transform="rotate(6 5 -16)"/>
      <ellipse cx="13" cy="-7" rx="5.5" ry="7" transform="rotate(24 13 -7)"/>
      <path d="M 0 -1 C -10 -3, -20 2, -23 11 C -25 20, -21 28, -15 30 C -9 31, -4 28, 0 26 C 4 28, 9 31, 15 30 C 21 28, 25 20, 23 11 C 20 2, 10 -3, 0 -1 Z"/>
    </g>
    <g transform="translate(110 195) rotate(30) scale(0.65)">
      <ellipse cx="-13" cy="-7" rx="5.5" ry="7" transform="rotate(-24 -13 -7)"/>
      <ellipse cx="-5" cy="-16" rx="5.5" ry="7.5" transform="rotate(-6 -5 -16)"/>
      <ellipse cx="5" cy="-16" rx="5.5" ry="7.5" transform="rotate(6 5 -16)"/>
      <ellipse cx="13" cy="-7" rx="5.5" ry="7" transform="rotate(24 13 -7)"/>
      <path d="M 0 -1 C -10 -3, -20 2, -23 11 C -25 20, -21 28, -15 30 C -9 31, -4 28, 0 26 C 4 28, 9 31, 15 30 C 21 28, 25 20, 23 11 C 20 2, 10 -3, 0 -1 Z"/>
    </g>
    <g transform="translate(160 170) rotate(28) scale(0.65)">
      <ellipse cx="-13" cy="-7" rx="5.5" ry="7" transform="rotate(-24 -13 -7)"/>
      <ellipse cx="-5" cy="-16" rx="5.5" ry="7.5" transform="rotate(-6 -5 -16)"/>
      <ellipse cx="5" cy="-16" rx="5.5" ry="7.5" transform="rotate(6 5 -16)"/>
      <ellipse cx="13" cy="-7" rx="5.5" ry="7" transform="rotate(24 13 -7)"/>
      <path d="M 0 -1 C -10 -3, -20 2, -23 11 C -25 20, -21 28, -15 30 C -9 31, -4 28, 0 26 C 4 28, 9 31, 15 30 C 21 28, 25 20, 23 11 C 20 2, 10 -3, 0 -1 Z"/>
    </g>
    <g transform="translate(210 140) rotate(30) scale(0.65)">
      <ellipse cx="-13" cy="-7" rx="5.5" ry="7" transform="rotate(-24 -13 -7)"/>
      <ellipse cx="-5" cy="-16" rx="5.5" ry="7.5" transform="rotate(-6 -5 -16)"/>
      <ellipse cx="5" cy="-16" rx="5.5" ry="7.5" transform="rotate(6 5 -16)"/>
      <ellipse cx="13" cy="-7" rx="5.5" ry="7" transform="rotate(24 13 -7)"/>
      <path d="M 0 -1 C -10 -3, -20 2, -23 11 C -25 20, -21 28, -15 30 C -9 31, -4 28, 0 26 C 4 28, 9 31, 15 30 C 21 28, 25 20, 23 11 C 20 2, 10 -3, 0 -1 Z"/>
    </g>
  </g>

  <path d="M551 904V814L571 776V-260Q571 -299 577.0 -315.5Q583 -332 598 -339L620 -349Q643 -358 652.5 -373.0Q662 -388 662 -407Q662 -435 644.5 -450.5Q627 -466 588 -466H131Q92 -466 74.5 -450.5Q57 -435 57 -407Q57 -388 67.0 -373.0Q77 -358 99 -349L122 -339Q136 -332 142.0 -315.5Q148 -299 148 -260V683Q148 714 140.0 727.0Q132 740 115 745L92 752Q72 759 62.5 771.5Q53 784 53 804Q53 827 66.0 839.5Q79 852 114 867L320 955Q368 975 399.5 983.5Q431 992 457 992Q504 992 527.5 967.0Q551 942 551 904ZM497 629 428 696Q513 834 619.0 913.0Q725 992 861 992Q980 992 1074.0 931.0Q1168 870 1222.0 763.0Q1276 656 1276 515Q1276 352 1209.5 230.0Q1143 108 1027.5 40.0Q912 -28 766 -28Q646 -28 556.5 23.0Q467 74 402 178L509 250Q554 185 594.5 157.5Q635 130 683 130Q730 130 765.5 164.0Q801 198 820.5 273.5Q840 349 840 472Q840 585 820.0 654.0Q800 723 765.0 755.0Q730 787 684 787Q629 787 583.5 749.5Q538 712 497 629Z" fill="#2D3748" transform="translate(35.37 380.00) scale(0.02900 -0.02900)"/>
  <path d="M1067 605Q1067 537 1030.0 499.0Q993 461 923 461H330V563H597Q651 563 651 614Q651 742 621.5 797.0Q592 852 545 852Q510 852 482.0 826.0Q454 800 437.5 746.0Q421 692 421 609Q421 426 503.0 341.5Q585 257 727 257Q794 257 848.5 273.0Q903 289 954 336Q982 362 996.5 370.5Q1011 379 1025 379Q1045 379 1054.0 359.5Q1063 340 1063 312Q1063 222 1002.5 144.0Q942 66 835.0 19.0Q728 -28 585 -28Q433 -28 311.5 32.5Q190 93 119.0 201.5Q48 310 48 455Q48 617 113.0 737.5Q178 858 302.0 925.0Q426 992 601 992Q756 992 859.5 942.0Q963 892 1015.0 804.5Q1067 717 1067 605Z" fill="#2D3748" transform="translate(73.77 380.00) scale(0.02900 -0.02900)"/>
  <path d="M96 835 62 848Q41 857 30.0 870.5Q19 884 19 904Q19 932 38.0 947.0Q57 962 88 962H143Q162 962 178.0 972.0Q194 982 220 1007L386 1173Q418 1206 446.0 1221.5Q474 1237 500 1237Q528 1237 544.5 1218.5Q561 1200 561 1164V362Q561 289 586.0 250.5Q611 212 658 212Q696 212 716.5 231.0Q737 250 749.5 274.0Q762 298 775.5 317.0Q789 336 813 337Q833 338 844.5 324.0Q856 310 856 277Q856 192 807.5 123.0Q759 54 673.5 13.0Q588 -28 479 -28Q316 -28 227.5 50.5Q139 129 139 287V771Q139 799 128.5 812.0Q118 825 96 835ZM416 823V962H780Q810 962 828.5 949.0Q847 936 847 911Q847 874 810.5 848.5Q774 823 691 823Z" fill="#2D3748" transform="translate(106.13 380.00) scale(0.02900 -0.02900)"/>
  <path d="M1042 357Q1024 287 1031.0 260.0Q1038 233 1058 233Q1069 233 1080.5 238.5Q1092 244 1109 258Q1133 278 1148.0 281.5Q1163 285 1178 277Q1197 267 1198.0 240.5Q1199 214 1178 173Q1131 82 1036.0 26.0Q941 -30 833 -30Q742 -30 703.5 15.5Q665 61 665 138Q665 163 667.0 190.0Q669 217 672.5 245.0Q676 273 681.0 299.5Q686 326 692 351L719 273Q694 182 631.5 113.5Q569 45 483.0 7.5Q397 -30 300 -30Q160 -30 86.0 57.5Q12 145 33 320Q45 415 84.0 508.5Q123 602 189.0 685.0Q255 768 347.5 832.0Q440 896 558.5 932.5Q677 969 820 969Q962 969 1054.0 950.0Q1146 931 1189.0 899.0Q1232 867 1226 827Q1221 792 1201.0 778.0Q1181 764 1160.5 749.5Q1140 735 1130 699ZM452 324Q443 248 457.5 219.0Q472 190 496 190Q523 190 552.5 213.0Q582 236 611.5 279.5Q641 323 669.0 382.5Q697 442 720.0 516.0Q743 590 757 674Q771 752 760.5 788.0Q750 824 716 824Q681 824 646.5 793.5Q612 763 580.5 711.0Q549 659 522.5 594.0Q496 529 478.0 459.0Q460 389 452 324Z" fill="#4A9FD4" transform="translate(131.62 380.00) scale(0.02900 -0.02900)"/>
  <path d="M571 1422V206Q571 167 577.0 150.5Q583 134 598 127L621 117Q643 108 653.0 93.0Q663 78 663 59Q663 31 645.5 15.5Q628 0 589 0H132Q93 0 75.0 15.5Q57 31 57 59Q57 78 67.0 93.0Q77 108 100 117L122 127Q137 134 143.0 150.5Q149 167 149 206V1200Q149 1232 140.5 1245.0Q132 1258 115 1263L93 1270Q72 1277 63.0 1289.5Q54 1302 54 1322Q54 1345 66.5 1359.0Q79 1373 114 1386L340 1473Q393 1493 423.5 1501.5Q454 1510 477 1510Q524 1510 547.5 1485.0Q571 1460 571 1422Z" fill="#2D3748" transform="translate(168.28 380.00) scale(0.02900 -0.02900)"/>
  <path d="M628 992Q798 992 924.5 927.5Q1051 863 1121.0 747.5Q1191 632 1191 478Q1191 336 1117.5 221.5Q1044 107 914.0 39.5Q784 -28 612 -28Q443 -28 316.5 37.5Q190 103 119.5 218.5Q49 334 49 486Q49 631 123.0 745.0Q197 859 327.0 925.5Q457 992 628 992ZM701 114Q739 123 759.0 167.0Q779 211 777.0 295.5Q775 380 747 510Q721 634 688.5 712.5Q656 791 618.5 825.5Q581 860 540 850Q502 841 482.0 797.0Q462 753 464.5 669.0Q467 585 494 454Q520 331 552.5 252.0Q585 173 622.5 139.0Q660 105 701 114Z" fill="#2D3748" transform="translate(188.61 380.00) scale(0.02900 -0.02900)"/>
</svg>